<?xml version="1.0" encoding="UTF-8" standalone="no"?>
<!-- Generator: Adobe Illustrator 22.1.0, SVG Export Plug-In . SVG Version: 6.00 Build 0) -->

<svg
   x="0px"
   y="0px"
   viewBox="0 0 65 62.999998"
   xml:space="preserve"
   version="1.1"
   id="svg39"
   sodipodi:docname="SoCMakeLogo5.svg"
   width="65"
   height="63"
   inkscape:version="1.2.2 (b0a8486541, 2022-12-01)"
   inkscape:export-filename="SoCMakeLogo.png"
   inkscape:export-xdpi="1536"
   inkscape:export-ydpi="1536"
   xmlns:inkscape="http://www.inkscape.org/namespaces/inkscape"
   xmlns:sodipodi="http://sodipodi.sourceforge.net/DTD/sodipodi-0.dtd"
   xmlns="http://www.w3.org/2000/svg"
   xmlns:svg="http://www.w3.org/2000/svg"
   xmlns:rdf="http://www.w3.org/1999/02/22-rdf-syntax-ns#"
   xmlns:cc="http://creativecommons.org/ns#"
   xmlns:dc="http://purl.org/dc/elements/1.1/"><metadata
   id="metadata45"><rdf:RDF><cc:Work
       rdf:about=""><dc:format>image/svg+xml</dc:format><dc:type
         rdf:resource="http://purl.org/dc/dcmitype/StillImage" /></cc:Work></rdf:RDF></metadata><defs
   id="defs43">                </defs><sodipodi:namedview
   pagecolor="#ffffff"
   bordercolor="#666666"
   borderopacity="1"
   objecttolerance="10"
   gridtolerance="10"
   guidetolerance="10"
   inkscape:pageopacity="0"
   inkscape:pageshadow="2"
   inkscape:window-width="1916"
   inkscape:window-height="1019"
   id="namedview41"
   showgrid="false"
   inkscape:zoom="5.6568543"
   inkscape:cx="59.043416"
   inkscape:cy="43.487067"
   inkscape:window-x="0"
   inkscape:window-y="0"
   inkscape:window-maximized="1"
   inkscape:current-layer="svg39"
   inkscape:showpageshadow="2"
   inkscape:pagecheckerboard="0"
   inkscape:deskcolor="#d1d1d1" /> <style
   type="text/css"
   id="style2"> .st0{fill:#064F8C;} .st1{fill:#249847;} .st2{fill:#BE2128;} .st3{fill:#172C36;} .st4{fill:#CDCDCE;} </style> <g
   id="Layer_2"
   transform="translate(0,18.599998)"> </g>  <path
   id="rect266"
   style="fill:#064f8c;fill-opacity:1;stroke:#000000;stroke-width:0.291;stroke-dasharray:none;stroke-opacity:1"
   d="m 12.064578,14.367793 a 1.4685355,1.4685355 0 0 0 -1.469235,1.469236 1.4685355,1.4685355 0 0 0 1.469236,1.467368 1.4685355,1.4685355 0 0 0 1.411362,-1.060388 h 10.353724 l 5.708923,5.708922 0.545129,-0.545128 -5.936682,-5.934817 h -0.0019 -10.658024 a 1.4685355,1.4685355 0 0 0 -1.422577,-1.105193 z" /><circle
   style="fill:#ffffff;fill-opacity:1;stroke-width:2.06369;stroke-dasharray:none"
   id="path1347-6"
   cx="12.064763"
   cy="15.836213"
   r="0.88072264" /><path
   id="rect266-7"
   style="fill:#064f8c;fill-opacity:1;stroke:#000000;stroke-width:0.291;stroke-dasharray:none;stroke-opacity:1"
   d="m 8.4972303,22.17863 a 1.4685355,1.4685355 0 0 0 -1.4692355,1.469235 1.4685355,1.4685355 0 0 0 1.469235,1.467369 1.4685355,1.4685355 0 0 0 1.4113621,-1.060388 H 20.262314 l 5.708923,5.708923 0.545129,-0.54513 -5.936682,-5.934816 -0.0019,-1.3e-5 H 9.9197499 A 1.4685355,1.4685355 0 0 0 8.4971857,22.178616 Z" /><circle
   style="fill:#ffffff;fill-opacity:1;stroke-width:2.06369;stroke-dasharray:none"
   id="path1347-6-5"
   cx="8.4974136"
   cy="23.647055"
   r="0.88072264" /><path
   id="rect266-7-9"
   style="fill:#064f8c;fill-opacity:1;stroke:#000000;stroke-width:0.291;stroke-dasharray:none;stroke-opacity:1"
   d="m 5.3565722,30.715053 a 1.4685355,1.4685355 0 0 0 -1.4692356,1.469235 1.4685355,1.4685355 0 0 0 1.469235,1.46737 1.4685355,1.4685355 0 0 0 1.4113621,-1.060388 H 17.121655 l 5.708923,5.708923 0.545129,-0.54513 -5.936682,-5.934816 -0.0019,-1.4e-5 H 6.7790913 A 1.4685355,1.4685355 0 0 0 5.3565275,30.71504 Z" /><circle
   style="fill:#ffffff;fill-opacity:1;stroke-width:2.06369;stroke-dasharray:none"
   id="path1347-6-5-1"
   cx="5.3567557"
   cy="32.183475"
   r="0.88072264" /><path
   id="rect266-7-9-2"
   style="fill:#064f8c;fill-opacity:1;stroke:#000000;stroke-width:0.291;stroke-dasharray:none;stroke-opacity:1"
   d="M 1.8225416,39.194945 A 1.4685355,1.4685355 0 0 0 0.35330595,40.66418 1.4685355,1.4685355 0 0 0 1.822541,42.131551 1.4685355,1.4685355 0 0 0 3.2339032,41.071163 H 13.587625 l 5.708922,5.708922 0.545129,-0.54513 -5.936682,-5.934816 -0.0019,-1.4e-5 H 3.2450608 A 1.4685355,1.4685355 0 0 0 1.822497,39.194932 Z" /><circle
   style="fill:#ffffff;fill-opacity:1;stroke-width:2.06369;stroke-dasharray:none"
   id="path1347-6-5-1-7"
   cx="1.8227253"
   cy="40.663368"
   r="0.88072264" /><path
   id="rect266-0"
   style="fill:#be2128;fill-opacity:1;stroke:#000000;stroke-width:0.291;stroke-dasharray:none;stroke-opacity:1"
   d="m 51.916861,14.565467 a 1.4685355,1.4685355 0 0 1 1.469235,1.469236 1.4685355,1.4685355 0 0 1 -1.469236,1.467368 1.4685355,1.4685355 0 0 1 -1.411362,-1.060388 H 40.151774 l -5.708923,5.708922 -0.545129,-0.545128 5.936682,-5.934816 h 0.0019 10.658024 a 1.4685355,1.4685355 0 0 1 1.422565,-1.105194 z" /><circle
   style="fill:#ffffff;fill-opacity:1;stroke-width:2.06369;stroke-dasharray:none"
   id="path1347-6-9"
   cx="-51.916676"
   cy="16.033888"
   r="0.88072264"
   transform="scale(-1,1)" /><path
   id="rect266-7-3"
   style="fill:#be2128;fill-opacity:1;stroke:#000000;stroke-width:0.291;stroke-dasharray:none;stroke-opacity:1"
   d="m 55.48421,22.376304 a 1.4685355,1.4685355 0 0 1 1.469235,1.469235 1.4685355,1.4685355 0 0 1 -1.469235,1.467369 1.4685355,1.4685355 0 0 1 -1.411362,-1.060387 H 43.719125 l -5.708923,5.708922 -0.545129,-0.54513 5.936682,-5.934816 0.0019,-1.3e-5 h 10.658024 a 1.4685355,1.4685355 0 0 1 1.422563,-1.105193 z" /><circle
   style="fill:#ffffff;fill-opacity:1;stroke-width:2.06369;stroke-dasharray:none"
   id="path1347-6-5-6"
   cx="-55.484024"
   cy="23.844727"
   r="0.88072264"
   transform="scale(-1,1)" /><path
   id="rect266-7-9-0"
   style="fill:#be2128;fill-opacity:1;stroke:#000000;stroke-width:0.291;stroke-dasharray:none;stroke-opacity:1"
   d="m 58.624868,30.912727 a 1.4685355,1.4685355 0 0 1 1.469235,1.469235 1.4685355,1.4685355 0 0 1 -1.469235,1.46737 1.4685355,1.4685355 0 0 1 -1.411362,-1.060388 H 46.859784 l -5.708923,5.708923 -0.545129,-0.54513 5.936682,-5.934816 0.0019,-1.4e-5 h 10.658035 a 1.4685355,1.4685355 0 0 1 1.422564,-1.105193 z" /><circle
   style="fill:#ffffff;fill-opacity:1;stroke-width:2.06369;stroke-dasharray:none"
   id="path1347-6-5-1-6"
   cx="-58.624683"
   cy="32.381149"
   r="0.88072264"
   transform="scale(-1,1)" /><path
   id="rect266-7-9-2-2"
   style="fill:#be2128;fill-opacity:1;stroke:#000000;stroke-width:0.291;stroke-dasharray:none;stroke-opacity:1"
   d="m 62.158898,39.392619 a 1.4685355,1.4685355 0 0 1 1.469236,1.469235 1.4685355,1.4685355 0 0 1 -1.469235,1.467371 1.4685355,1.4685355 0 0 1 -1.411362,-1.060388 H 50.393814 l -5.708922,5.708922 -0.545129,-0.54513 5.936682,-5.934816 0.0019,-1.4e-5 h 10.658034 a 1.4685355,1.4685355 0 0 1 1.422564,-1.105193 z" /><circle
   style="fill:#ffffff;fill-opacity:1;stroke-width:2.06369;stroke-dasharray:none"
   id="path1347-6-5-1-7-6"
   cx="-62.158714"
   cy="40.861042"
   r="0.88072264"
   transform="scale(-1,1)" /><path
   id="rect266-0-8"
   style="fill:#249847;fill-opacity:1;stroke:#000000;stroke-width:0.291;stroke-dasharray:none;stroke-opacity:1"
   d="m 22.228162,59.967025 c 3.87e-4,0.811597 -0.65764,1.469623 -1.469237,1.469236 -0.810867,-6.45e-4 -1.467755,-0.658369 -1.467368,-1.469237 -3.05e-4,-0.654109 0.43205,-1.229566 1.060389,-1.411361 V 48.201939 l -0.0047,-0.455558 0.773819,0.02249 0.02454,0.08333 -0.02262,0.03427 v 10.658024 c 0.650129,0.166015 1.10505,0.751573 1.105193,1.422565 z"
   sodipodi:nodetypes="cccccccccccc" /><circle
   style="fill:#ffffff;fill-opacity:1;stroke-width:2.06369;stroke-dasharray:none"
   id="path1347-6-9-7"
   cx="-59.966843"
   cy="-20.759741"
   r="0.88072264"
   transform="matrix(0,-1,-1,0,0,0)" /><path
   id="rect266-0-8-2"
   style="fill:#249847;fill-opacity:1;stroke:#000000;stroke-width:0.291;stroke-dasharray:none;stroke-opacity:1"
   d="m 29.239586,59.960783 c 3.87e-4,0.811597 -0.65764,1.469623 -1.469237,1.469236 -0.810867,-6.45e-4 -1.467755,-0.658369 -1.467368,-1.469237 -3.05e-4,-0.654109 0.43205,-1.229566 1.060389,-1.411361 V 48.195697 l -0.0047,-0.455558 0.773819,0.02249 0.02454,0.08333 -0.02262,0.03427 v 10.658024 c 0.650129,0.166015 1.10505,0.751573 1.105193,1.422565 z"
   sodipodi:nodetypes="cccccccccccc" /><circle
   style="fill:#ffffff;fill-opacity:1;stroke-width:2.06369;stroke-dasharray:none"
   id="path1347-6-9-7-28"
   cx="-59.960602"
   cy="-27.771166"
   r="0.88072264"
   transform="matrix(0,-1,-1,0,0,0)" /><path
   id="rect266-0-8-9"
   style="fill:#249847;fill-opacity:1;stroke:#000000;stroke-width:0.291;stroke-dasharray:none;stroke-opacity:1"
   d="m 37.002827,59.946109 c 3.87e-4,0.811597 -0.65764,1.469623 -1.469237,1.469236 -0.810867,-6.45e-4 -1.467755,-0.658369 -1.467368,-1.469237 -3.05e-4,-0.654109 0.43205,-1.229566 1.060389,-1.411361 V 48.181023 l -0.0047,-0.455558 0.773819,0.02249 0.02454,0.08333 -0.02262,0.03427 v 10.658024 c 0.650129,0.166015 1.10505,0.751573 1.105193,1.422565 z"
   sodipodi:nodetypes="cccccccccccc" /><circle
   style="fill:#ffffff;fill-opacity:1;stroke-width:2.06369;stroke-dasharray:none"
   id="path1347-6-9-7-73"
   cx="-59.945927"
   cy="-35.534405"
   r="0.88072264"
   transform="matrix(0,-1,-1,0,0,0)" /><path
   id="rect266-0-8-9-9"
   style="fill:#249847;fill-opacity:1;stroke:#000000;stroke-width:0.291;stroke-dasharray:none;stroke-opacity:1"
   d="m 44.774442,59.941103 c 3.87e-4,0.811597 -0.65764,1.469623 -1.469237,1.469236 -0.810867,-6.45e-4 -1.467755,-0.658369 -1.467368,-1.469237 -3.05e-4,-0.654109 0.43205,-1.229566 1.060389,-1.411361 v -7.038902 l -0.01566,-0.644592 0.398168,0.116058 0.241368,0.129336 0.147165,0.446174 v 6.980758 c 0.650129,0.166015 1.10505,0.751573 1.105193,1.422565 z"
   sodipodi:nodetypes="cccccccccccc" /><circle
   style="fill:#ffffff;fill-opacity:1;stroke-width:2.06369;stroke-dasharray:none"
   id="path1347-6-9-7-73-3"
   cx="-59.940922"
   cy="-43.306023"
   r="0.88072264"
   transform="matrix(0,-1,-1,0,0,0)" /><g
   id="g922"
   transform="matrix(1.215265,0,0,1.215265,6.6262631,-1.5715137)"
   style="stroke:#000000;stroke-width:0.24686;stroke-dasharray:none;stroke-opacity:1"><polygon
     transform="matrix(0.79452357,0,0,0.79452357,3.8001251,12.63966)"
     class="st0"
     points="22.9,22.4 21.3,3.8 3.6,38.8 "
     id="polygon6"
     style="fill:#064f8c;stroke:#000000;stroke-width:0.310702;stroke-dasharray:none;stroke-opacity:1" /><polygon
     transform="matrix(0.79452357,0,0,0.79452357,3.8001251,12.63966)"
     class="st1"
     points="3.5,39.9 38.6,39.9 14.8,30.3 "
     id="polygon8"
     style="fill:#249847;stroke:#000000;stroke-width:0.310702;stroke-dasharray:none;stroke-opacity:1" /><polygon
     transform="matrix(0.79452357,0,0,0.79452357,3.8001251,12.63966)"
     class="st2"
     points="24.7,33.5 39.8,39.6 22.1,4.4 "
     id="polygon10"
     style="fill:#be2128;stroke:#000000;stroke-width:0.310702;stroke-dasharray:none;stroke-opacity:1" /><polygon
     transform="matrix(0.79452357,0,0,0.79452357,3.8001251,12.63966)"
     style="fill:#cdcdce;stroke:#000000;stroke-width:0.310702;stroke-dasharray:none;stroke-opacity:1"
     id="polygon34"
     points="15.4,29.8 23.9,33.2 23,23.3 "
     class="st4" /></g><text
   xml:space="preserve"
   style="fill:#064f8c;fill-opacity:1;stroke:#000000;stroke-width:0.3;stroke-dasharray:none;stroke-opacity:1"
   x="4.9224658"
   y="10.58111"
   id="text5374"><tspan
     sodipodi:role="line"
     id="tspan5372"
     x="4.9224658"
     y="10.58111">S</tspan></text><text
   xml:space="preserve"
   style="fill:#249847;fill-opacity:1;stroke:#000000;stroke-width:0.3;stroke-dasharray:none;stroke-opacity:1"
   x="11.565889"
   y="10.555872"
   id="text6496"><tspan
     sodipodi:role="line"
     id="tspan6494"
     x="11.565889"
     y="10.555872">o</tspan></text><text
   xml:space="preserve"
   style="fill:#be2128;fill-opacity:1;stroke:#000000;stroke-width:0.3;stroke-dasharray:none;stroke-opacity:1"
   x="18.968569"
   y="10.524515"
   id="text6500"><tspan
     sodipodi:role="line"
     id="tspan6498"
     x="18.968569"
     y="10.524515">C</tspan></text><text
   xml:space="preserve"
   style="fill:#cdcdce;fill-opacity:1;stroke:#000000;stroke-width:0.3;stroke-dasharray:none;stroke-opacity:1"
   x="27.443142"
   y="10.646448"
   id="text6504"><tspan
     sodipodi:role="line"
     id="tspan6502"
     x="27.443142"
     y="10.646448">Make</tspan></text></svg>
