<?xml version="1.0" encoding="UTF-8" standalone="no"?>
<!-- Generator: Adobe Illustrator 22.1.0, SVG Export Plug-In . SVG Version: 6.00 Build 0) -->

<svg
   x="0px"
   y="0px"
   viewBox="0 0 122 48.999998"
   xml:space="preserve"
   version="1.1"
   id="svg39"
   sodipodi:docname="SoCMakeLogo4.svg"
   width="122"
   height="49"
   inkscape:version="1.2.2 (b0a8486541, 2022-12-01)"
   inkscape:export-filename="SoCMakeLogo.png"
   inkscape:export-xdpi="1536"
   inkscape:export-ydpi="1536"
   xmlns:inkscape="http://www.inkscape.org/namespaces/inkscape"
   xmlns:sodipodi="http://sodipodi.sourceforge.net/DTD/sodipodi-0.dtd"
   xmlns="http://www.w3.org/2000/svg"
   xmlns:svg="http://www.w3.org/2000/svg"
   xmlns:rdf="http://www.w3.org/1999/02/22-rdf-syntax-ns#"
   xmlns:cc="http://creativecommons.org/ns#"
   xmlns:dc="http://purl.org/dc/elements/1.1/"><metadata
   id="metadata45"><rdf:RDF><cc:Work
       rdf:about=""><dc:format>image/svg+xml</dc:format><dc:type
         rdf:resource="http://purl.org/dc/dcmitype/StillImage" /></cc:Work></rdf:RDF></metadata><defs
   id="defs43">                </defs><sodipodi:namedview
   pagecolor="#ffffff"
   bordercolor="#666666"
   borderopacity="1"
   objecttolerance="10"
   gridtolerance="10"
   guidetolerance="10"
   inkscape:pageopacity="0"
   inkscape:pageshadow="2"
   inkscape:window-width="1916"
   inkscape:window-height="1019"
   id="namedview41"
   showgrid="false"
   inkscape:zoom="5.6568543"
   inkscape:cx="78.842406"
   inkscape:cy="45.961941"
   inkscape:window-x="0"
   inkscape:window-y="0"
   inkscape:window-maximized="1"
   inkscape:current-layer="svg39"
   inkscape:showpageshadow="2"
   inkscape:pagecheckerboard="0"
   inkscape:deskcolor="#d1d1d1" /> <style
   type="text/css"
   id="style2"> .st0{fill:#064F8C;} .st1{fill:#249847;} .st2{fill:#BE2128;} .st3{fill:#172C36;} .st4{fill:#CDCDCE;} </style> <g
   id="Layer_2"
   transform="translate(0,18.599998)"> </g>  <path
   id="rect266"
   style="fill:#064f8c;fill-opacity:1;stroke:#000000;stroke-width:0.291;stroke-dasharray:none;stroke-opacity:1"
   d="m 68.613781,1.1040164 a 1.4685355,1.4685355 0 0 0 -1.46923,1.4692362 1.4685355,1.4685355 0 0 0 1.46924,1.4673684 1.4685355,1.4685355 0 0 0 1.41136,-1.0603886 h 10.35372 l 5.70892,5.7089227 0.54513,-0.5451288 -5.93668,-5.9348162 h -0.002 -10.65802 a 1.4685355,1.4685355 0 0 0 -1.42258,-1.1051937 z" /><circle
   style="fill:#ffffff;fill-opacity:1;stroke-width:2.06369;stroke-dasharray:none"
   id="path1347-6"
   cx="68.613976"
   cy="2.5724373"
   r="0.88072264" /><path
   id="rect266-7"
   style="fill:#064f8c;fill-opacity:1;stroke:#000000;stroke-width:0.291;stroke-dasharray:none;stroke-opacity:1"
   d="m 65.046441,8.9148535 a 1.4685355,1.4685355 0 0 0 -1.46924,1.4692355 1.4685355,1.4685355 0 0 0 1.46924,1.467369 1.4685355,1.4685355 0 0 0 1.41136,-1.060388 h 10.35372 l 5.70892,5.708923 0.54513,-0.54513 -5.93668,-5.934816 -0.002,-1.3e-5 h -10.65803 a 1.4685355,1.4685355 0 0 0 -1.42257,-1.1051939 z" /><circle
   style="fill:#ffffff;fill-opacity:1;stroke-width:2.06369;stroke-dasharray:none"
   id="path1347-6-5"
   cx="65.046623"
   cy="10.383278"
   r="0.88072264" /><path
   id="rect266-7-9"
   style="fill:#064f8c;fill-opacity:1;stroke:#000000;stroke-width:0.291;stroke-dasharray:none;stroke-opacity:1"
   d="m 61.905781,17.451277 a 1.4685355,1.4685355 0 0 0 -1.46924,1.469235 1.4685355,1.4685355 0 0 0 1.46924,1.46737 1.4685355,1.4685355 0 0 0 1.41136,-1.060388 h 10.35372 l 5.70892,5.708923 0.54513,-0.54513 -5.93668,-5.934816 -0.002,-1.4e-5 h -10.65803 a 1.4685355,1.4685355 0 0 0 -1.42257,-1.105193 z" /><circle
   style="fill:#ffffff;fill-opacity:1;stroke-width:2.06369;stroke-dasharray:none"
   id="path1347-6-5-1"
   cx="61.90596"
   cy="18.919699"
   r="0.88072264" /><path
   id="rect266-7-9-2"
   style="fill:#064f8c;fill-opacity:1;stroke:#000000;stroke-width:0.291;stroke-dasharray:none;stroke-opacity:1"
   d="m 58.371751,25.931169 a 1.4685355,1.4685355 0 0 0 -1.46924,1.469235 1.4685355,1.4685355 0 0 0 1.46924,1.467371 1.4685355,1.4685355 0 0 0 1.41136,-1.060388 h 10.35372 l 5.70892,5.708922 0.54513,-0.54513 -5.93668,-5.934816 -0.002,-1.4e-5 h -10.65803 a 1.4685355,1.4685355 0 0 0 -1.42257,-1.105193 z" /><circle
   style="fill:#ffffff;fill-opacity:1;stroke-width:2.06369;stroke-dasharray:none"
   id="path1347-6-5-1-7"
   cx="58.371933"
   cy="27.399591"
   r="0.88072264" /><path
   id="rect266-0"
   style="fill:#be2128;fill-opacity:1;stroke:#000000;stroke-width:0.291;stroke-dasharray:none;stroke-opacity:1"
   d="m 108.46607,1.3016905 a 1.4685355,1.4685355 0 0 1 1.46923,1.4692362 1.4685355,1.4685355 0 0 1 -1.46923,1.4673684 1.4685355,1.4685355 0 0 1 -1.41137,-1.0603885 H 96.700981 l -5.70892,5.7089225 -0.54513,-0.5451287 5.93668,-5.9348162 h 0.002 10.658019 a 1.4685355,1.4685355 0 0 1 1.42257,-1.1051937 z" /><circle
   style="fill:#ffffff;fill-opacity:1;stroke-width:2.06369;stroke-dasharray:none"
   id="path1347-6-9"
   cx="-108.46589"
   cy="2.7701116"
   r="0.88072264"
   transform="scale(-1,1)" /><path
   id="rect266-7-3"
   style="fill:#be2128;fill-opacity:1;stroke:#000000;stroke-width:0.291;stroke-dasharray:none;stroke-opacity:1"
   d="m 112.03342,9.1125276 a 1.4685355,1.4685355 0 0 1 1.46923,1.4692354 1.4685355,1.4685355 0 0 1 -1.46923,1.467369 1.4685355,1.4685355 0 0 1 -1.41137,-1.060387 h -10.35372 l -5.708919,5.708922 -0.54513,-0.54513 5.93668,-5.934816 0.002,-1.3e-5 h 10.658029 a 1.4685355,1.4685355 0 0 1 1.42256,-1.1051938 z" /><circle
   style="fill:#ffffff;fill-opacity:1;stroke-width:2.06369;stroke-dasharray:none"
   id="path1347-6-5-6"
   cx="-112.03323"
   cy="10.580951"
   r="0.88072264"
   transform="scale(-1,1)" /><path
   id="rect266-7-9-0"
   style="fill:#be2128;fill-opacity:1;stroke:#000000;stroke-width:0.291;stroke-dasharray:none;stroke-opacity:1"
   d="m 115.17407,17.648951 a 1.4685355,1.4685355 0 0 1 1.46924,1.469235 1.4685355,1.4685355 0 0 1 -1.46924,1.46737 1.4685355,1.4685355 0 0 1 -1.41136,-1.060388 h -10.35372 l -5.708919,5.708923 -0.54513,-0.54513 5.936679,-5.934816 0.002,-1.4e-5 h 10.65804 a 1.4685355,1.4685355 0 0 1 1.42256,-1.105193 z" /><circle
   style="fill:#ffffff;fill-opacity:1;stroke-width:2.06369;stroke-dasharray:none"
   id="path1347-6-5-1-6"
   cx="-115.1739"
   cy="19.117374"
   r="0.88072264"
   transform="scale(-1,1)" /><path
   id="rect266-7-9-2-2"
   style="fill:#be2128;fill-opacity:1;stroke:#000000;stroke-width:0.291;stroke-dasharray:none;stroke-opacity:1"
   d="m 118.7081,26.128843 a 1.4685355,1.4685355 0 0 1 1.46924,1.469235 1.4685355,1.4685355 0 0 1 -1.46923,1.467371 1.4685355,1.4685355 0 0 1 -1.41137,-1.060388 h -10.35372 l -5.70892,5.708922 -0.54513,-0.54513 5.93668,-5.934816 0.002,-1.4e-5 h 10.65804 a 1.4685355,1.4685355 0 0 1 1.42256,-1.105193 z" /><circle
   style="fill:#ffffff;fill-opacity:1;stroke-width:2.06369;stroke-dasharray:none"
   id="path1347-6-5-1-7-6"
   cx="-118.70792"
   cy="27.597267"
   r="0.88072264"
   transform="scale(-1,1)" /><path
   id="rect266-0-8"
   style="fill:#249847;fill-opacity:1;stroke:#000000;stroke-width:0.291;stroke-dasharray:none;stroke-opacity:1"
   d="m 78.777371,46.703249 c 3.9e-4,0.811597 -0.65764,1.469623 -1.46924,1.469236 -0.81087,-6.45e-4 -1.46775,-0.658369 -1.46737,-1.469237 -3e-4,-0.654109 0.43205,-1.229566 1.06039,-1.411361 V 34.938163 l -0.005,-0.455558 0.77382,0.02249 0.0245,0.08333 -0.0226,0.03427 v 10.658024 c 0.65013,0.166015 1.10505,0.751573 1.10519,1.422565 z"
   sodipodi:nodetypes="cccccccccccc" /><circle
   style="fill:#ffffff;fill-opacity:1;stroke-width:2.06369;stroke-dasharray:none"
   id="path1347-6-9-7"
   cx="-46.703068"
   cy="-77.308952"
   r="0.88072264"
   transform="matrix(0,-1,-1,0,0,0)" /><text
   xml:space="preserve"
   style="fill:#064f8c;fill-opacity:1;stroke:#000000;stroke-width:0.3;stroke-dasharray:none;stroke-opacity:1"
   x="1.9289765"
   y="38.004234"
   id="text5374"><tspan
     sodipodi:role="line"
     id="tspan5372"
     x="1.9289765"
     y="38.004234">S</tspan></text><text
   xml:space="preserve"
   style="fill:#249847;fill-opacity:1;stroke:#000000;stroke-width:0.3;stroke-dasharray:none;stroke-opacity:1"
   x="8.572402"
   y="37.978996"
   id="text6496"><tspan
     sodipodi:role="line"
     id="tspan6494"
     x="8.572402"
     y="37.978996">o</tspan></text><text
   xml:space="preserve"
   style="fill:#be2128;fill-opacity:1;stroke:#000000;stroke-width:0.3;stroke-dasharray:none;stroke-opacity:1"
   x="15.975081"
   y="37.947639"
   id="text6500"><tspan
     sodipodi:role="line"
     id="tspan6498"
     x="15.975081"
     y="37.947639">C</tspan></text><text
   xml:space="preserve"
   style="fill:#cdcdce;fill-opacity:1;stroke:#000000;stroke-width:0.3;stroke-dasharray:none;stroke-opacity:1"
   x="24.449652"
   y="38.069572"
   id="text6504"><tspan
     sodipodi:role="line"
     id="tspan6502"
     x="24.449652"
     y="38.069572">Make</tspan></text><path
   id="rect266-0-8-2"
   style="fill:#249847;fill-opacity:1;stroke:#000000;stroke-width:0.291;stroke-dasharray:none;stroke-opacity:1"
   d="m 85.788791,46.697007 c 3.9e-4,0.811597 -0.65764,1.469623 -1.46923,1.469236 -0.81087,-6.45e-4 -1.46776,-0.658369 -1.46737,-1.469237 -3.1e-4,-0.654109 0.43205,-1.229566 1.06039,-1.411361 V 34.931921 l -0.005,-0.455558 0.77382,0.02249 0.0245,0.08333 -0.0226,0.03427 v 10.658024 c 0.65012,0.166015 1.10505,0.751573 1.10519,1.422565 z"
   sodipodi:nodetypes="cccccccccccc" /><circle
   style="fill:#ffffff;fill-opacity:1;stroke-width:2.06369;stroke-dasharray:none"
   id="path1347-6-9-7-28"
   cx="-46.696827"
   cy="-84.320366"
   r="0.88072264"
   transform="matrix(0,-1,-1,0,0,0)" /><path
   id="rect266-0-8-9"
   style="fill:#249847;fill-opacity:1;stroke:#000000;stroke-width:0.291;stroke-dasharray:none;stroke-opacity:1"
   d="m 93.552031,46.682333 c 3.9e-4,0.811597 -0.65764,1.469623 -1.46923,1.469236 -0.81087,-6.45e-4 -1.46776,-0.658369 -1.46737,-1.469237 -3.1e-4,-0.654109 0.43205,-1.229566 1.06039,-1.411361 V 34.917247 l -0.005,-0.455558 0.77382,0.02249 0.0245,0.08333 -0.0226,0.03427 v 10.658024 c 0.65013,0.166015 1.10505,0.751573 1.10519,1.422565 z"
   sodipodi:nodetypes="cccccccccccc" /><circle
   style="fill:#ffffff;fill-opacity:1;stroke-width:2.06369;stroke-dasharray:none"
   id="path1347-6-9-7-73"
   cx="-46.682152"
   cy="-92.083611"
   r="0.88072264"
   transform="matrix(0,-1,-1,0,0,0)" /><path
   id="rect266-0-8-9-9"
   style="fill:#249847;fill-opacity:1;stroke:#000000;stroke-width:0.291;stroke-dasharray:none;stroke-opacity:1"
   d="m 101.32365,46.677327 c 3.9e-4,0.811597 -0.65764,1.469623 -1.469239,1.469236 -0.81087,-6.45e-4 -1.46775,-0.658369 -1.46737,-1.469237 -3e-4,-0.654109 0.43205,-1.229566 1.06039,-1.411361 v -7.038902 l -0.0157,-0.644592 0.39817,0.116058 0.241369,0.129336 0.14716,0.446174 v 6.980758 c 0.65013,0.166015 1.10505,0.751573 1.1052,1.422565 z"
   sodipodi:nodetypes="cccccccccccc" /><circle
   style="fill:#ffffff;fill-opacity:1;stroke-width:2.06369;stroke-dasharray:none"
   id="path1347-6-9-7-73-3"
   cx="-46.677147"
   cy="-99.855232"
   r="0.88072264"
   transform="matrix(0,-1,-1,0,0,0)" /><g
   id="g922"
   transform="matrix(1.215265,0,0,1.215265,63.175471,-14.83529)"
   style="stroke:#000000;stroke-width:0.24686;stroke-dasharray:none;stroke-opacity:1"><polygon
     transform="matrix(0.79452357,0,0,0.79452357,3.8001251,12.63966)"
     class="st0"
     points="21.3,3.8 3.6,38.8 22.9,22.4 "
     id="polygon6"
     style="fill:#064f8c;stroke:#000000;stroke-width:0.310702;stroke-dasharray:none;stroke-opacity:1" /><polygon
     transform="matrix(0.79452357,0,0,0.79452357,3.8001251,12.63966)"
     class="st1"
     points="38.6,39.9 14.8,30.3 3.5,39.9 "
     id="polygon8"
     style="fill:#249847;stroke:#000000;stroke-width:0.310702;stroke-dasharray:none;stroke-opacity:1" /><polygon
     transform="matrix(0.79452357,0,0,0.79452357,3.8001251,12.63966)"
     class="st2"
     points="39.8,39.6 22.1,4.4 24.7,33.5 "
     id="polygon10"
     style="fill:#be2128;stroke:#000000;stroke-width:0.310702;stroke-dasharray:none;stroke-opacity:1" /><polygon
     transform="matrix(0.79452357,0,0,0.79452357,3.8001251,12.63966)"
     style="fill:#cdcdce;stroke:#000000;stroke-width:0.310702;stroke-dasharray:none;stroke-opacity:1"
     id="polygon34"
     points="23.9,33.2 23,23.3 15.4,29.8 "
     class="st4" /></g></svg>
